<svg width="85" height="85" viewBox="0 0 85 85" fill="none" xmlns="http://www.w3.org/2000/svg">
<g opacity="0.2">
<path d="M56.9324 10.5553L56.9324 0.000332425L84.999 0.000329971L84.999 28.0669L74.524 28.0669L74.524 10.5553L56.9324 10.5553Z" fill="#FFCF2D"/>
<path d="M37.9827 29.5055L37.9827 19.0305L66.0493 19.0305L66.0493 47.0171L55.4944 47.0171L55.4944 29.5055L37.9827 29.5055Z" fill="#FFCF2D"/>
<path d="M19.0314 48.5367L19.0314 37.9818L47.0181 37.9818L47.0181 66.0484L36.5431 66.0484L36.5431 48.5367L19.0314 48.5367Z" fill="#FFCF2D"/>
<path d="M4.99675e-05 67.4879L4.90448e-05 56.933L28.0666 56.9329L28.0667 84.9996L17.5117 84.9996L17.5117 67.4879L4.99675e-05 67.4879Z" fill="#FFCF2D"/>
</g>
</svg>
