<svg width="15" height="15" viewBox="0 0 15 15" fill="none" xmlns="http://www.w3.org/2000/svg">
<path fill-rule="evenodd" clip-rule="evenodd" d="M6.41667 1.33333C3.60922 1.33333 1.33333 3.60922 1.33333 6.41667C1.33333 9.22411 3.60922 11.5 6.41667 11.5C7.81926 11.5 9.08811 10.9328 10.0085 10.0137C10.9307 9.09288 11.5 7.82189 11.5 6.41667C11.5 3.60922 9.22411 1.33333 6.41667 1.33333ZM0 6.41667C0 2.87284 2.87284 0 6.41667 0C9.96049 0 12.8333 2.87284 12.8333 6.41667C12.8333 7.94947 12.2952 9.35754 11.3986 10.4609L14.1376 13.1948C14.3982 13.4549 14.3986 13.877 14.1385 14.1376C13.8784 14.3982 13.4563 14.3986 13.1957 14.1385L10.4553 11.4032C9.35281 12.297 7.94689 12.8333 6.41667 12.8333C2.87284 12.8333 0 9.96049 0 6.41667Z" fill="#9A9CA5"/>
</svg>
